<?xml version="1.0" encoding="UTF-8"?>
<svg width="16px" height="16px" viewBox="0 0 16 16" version="1.1" xmlns="http://www.w3.org/2000/svg" xmlns:xlink="http://www.w3.org/1999/xlink">
    <!-- Generator: Sketch 58 (84663) - https://sketch.com -->
    <title>icon/finance/tax/outline/tax-outline-16px</title>
    <desc>Created with Sketch.</desc>
    <g id="icon/finance/tax/outline/tax-outline-16px" stroke="none" stroke-width="1" fill="none" fill-rule="evenodd">
        <g id="scissors">
            <rect id="Rectangle" x="0" y="0" width="16" height="16"></rect>
            <g id="Group" transform="translate(0.000000, 1.000000)" stroke="#010709" stroke-linecap="round" stroke-linejoin="round">
                <path d="M5.5,3 C5.5,1.61928813 4.38071187,0.5 3,0.5 C1.61928813,0.5 0.5,1.61928813 0.5,3 C0.5,4.38071187 1.61928813,5.5 3,5.5 C4.38071187,5.5 5.5,4.38071187 5.5,3 L5.5,3 Z" id="Path"></path>
                <path d="M5.5,11 C5.5,9.61928813 4.38071187,8.5 3,8.5 C1.61928813,8.5 0.5,9.61928813 0.5,11 C0.5,12.3807119 1.61928813,13.5 3,13.5 C4.38071187,13.5 5.5,12.3807119 5.5,11 L5.5,11 Z" id="Path"></path>
                <path d="M4.79,4.74 L15.5,12.5" id="Path"></path>
                <path d="M4.79,9.26 L15.5,1.5" id="Path"></path>
            </g>
        </g>
    </g>
</svg>