<svg xmlns="http://www.w3.org/2000/svg" width="158" height="32" fill="none" viewBox="0 0 158 32">
    <g clip-path="url(#clip0)">
        <path fill="#004A7F" d="M28.855 31.422h5.317l4.168-15.678h-5.263l-4.222 15.678zM56.113 31.422h5.317l4.168-15.678h-5.317l-4.168 15.678zM83.421 31.422h5.265l4.119-15.678h-5.317L83.42 31.422zM51.161 21.11h5.317c.73-3.523-1.51-5.31-6.723-5.31-6.047 0-10.11 2.997-11.517 8.1-1.201 4.733 1.25 7.575 6.93 7.575 5.733 0 9.12-1.788 10.529-5.84H50.38c-.782 1.788-2.136 2.682-4.012 2.682-2.555 0-3.597-1.578-2.816-4.575.834-3.105 2.816-4.84 5.369-4.84 1.667 0 2.397.736 2.24 2.208M78.472 21.11h5.317c.73-3.523-1.566-5.31-6.778-5.31-5.995 0-10.11 2.997-11.465 8.1-1.25 4.733 1.198 7.575 6.88 7.575 5.681 0 9.068-1.788 10.527-5.84h-5.315c-.732 1.788-2.138 2.682-4.014 2.682-2.553 0-3.595-1.578-2.764-4.575.784-3.105 2.764-4.84 5.317-4.84 1.67 0 2.451.736 2.295 2.208"/>
        <path fill="#F06321" d="M8.372 7.068C15.46-.034 24.059-1.877 27.5 2.963c3.441 4.84.417 14.624-6.671 21.726-7.088 7.154-15.687 8.994-19.18 4.101-3.387-4.89-.363-14.623 6.723-21.722"/>
        <path fill="#AE282E" d="M13.063 3.279c-.781.578-1.563 1.262-2.344 2-6.203 6.206-8.81 14.727-5.734 18.99 3.178 4.258 10.788 2.68 17.146-3.58 3.442-3.365 5.734-7.259 6.672-10.887.26-2.682-.105-5.05-1.303-6.839-2.709-3.786-8.547-3.473-14.437.316"/>
        <path fill="#fff" d="M22.027 4.068v.157c-.052.894-.573 1.999-1.51 2.945-1.407 1.367-3.283 1.893-4.067 1.107-.886-.841-.362-2.684 1.044-4.157 1.46-1.42 3.335-1.893 4.116-1.051.26.262.417.578.417.999zM16.61 28.212C13.272 30.736 9.833 32 6.496 31.475c1.407.052 2.556-1.528 3.493-3.631.938-2.156 1.46-4.154 1.928-6.05.677-2.997.73-5.1.365-5.574-.573-.739-1.824-.578-3.285.263-.73.42-1.667.158-.57-1.21 1.146-1.367 5.574-4.63 7.137-5.155 1.774-.474 3.754.21 3.077 2.155-.472 1.42-6.62 17.622-2.032 15.939"/>
        <path fill="#004A7F" d="M100.778 28.948l1.199-4.522h2.917v-2.42h-2.24l1.042-3.84h1.198v-2.37h-3.962l-4.116 15.679h8.078v-2.527h-4.116zm4.116-4.522h.573c2.66 0 3.91.473 3.389 2.314-.416 1.63-1.719 2.208-3.962 2.208v2.527c2.191 0 3.806-.21 5.421-1.318 1.094-.736 1.878-1.84 2.191-3.102.571-2.156-.367-3.63-2.816-3.944 2.292-.42 3.754-1.633 4.22-3.526.417-1.42.052-2.471-.938-3.155-.833-.578-2.24-.633-4.116-.633h-3.962v2.369h2.035c2.501 0 3.647.315 3.282 1.893-.469 1.525-1.823 1.948-4.376 1.948h-.941v2.419zM119.487 20.482v1.943c-.416.213-.781.581-.937 1.107h-3.126c.518-1.525 1.927-2.58 4.063-3.05zm0 9.205c-.364.105-.781.158-1.198.158-1.407 0-2.032-.581-1.719-1.633.312-1.21 1.25-1.63 2.917-1.788v-1.84c-3.597.262-5.577 1.209-6.202 3.575-.573 2.156.784 3.579 3.597 3.579.938 0 1.824-.158 2.605-.474v-1.577zm3.025-3.263l-.052.158c-.417 1.63-1.514 2.737-2.973 3.105v1.577c.782-.318 1.459-.736 2.084-1.314l-.26 1.525h3.128c.157-.739.313-1.58.521-2.422l1.199-4.417c.104-.368.156-.736.156-1.104v-.526c-.104-1.79-1.615-2.737-4.428-2.737-.889 0-1.67.105-2.4.213v1.943c.469-.26 1.042-.366 1.774-.366 1.613 0 2.241.734 1.769 2.314l-.049.158h-1.67c-.623 0-1.251.053-1.824.053v1.84h3.025zM127.253 31.475h3.181l1.51-5.63c.521-1.998 2.345-3.42 4.273-3.42 1.875 0 2.555 1.107 1.93 3.315l-1.514 5.735h3.181l1.771-6.681c.73-2.84-.677-4.525-3.803-4.525-2.034 0-3.649.736-5.056 2.209l.365-1.946h-3.178c-.313 1.735-.521 2.79-.628 3.21l-2.032 7.733zM142.628 31.475h3.128l1.563-5.892 4.223 5.892h4.324l-4.796-6.26 6.463-4.683h-4.011l-5.995 4.367 2.397-9.1h-3.126l-4.17 15.676z"/>
    </g>
    <defs>
        <clipPath id="clip0">
            <path fill="#fff" d="M0 0H157.793V32H0z"/>
        </clipPath>
    </defs>
</svg>
