<svg xmlns="http://www.w3.org/2000/svg" width="194" height="150" viewBox="0 0 194 150">
    <defs>
        <linearGradient id="a" x1="50.001%" x2="50.001%" y1="99.998%" y2="0%">
            <stop offset="0%" stop-color="gray" stop-opacity=".25"/>
            <stop offset="54%" stop-color="gray" stop-opacity=".12"/>
            <stop offset="100%" stop-color="gray" stop-opacity=".1"/>
        </linearGradient>
        <linearGradient id="b" x1="50.017%" x2="50.017%" y1="100.002%" y2="-.001%">
            <stop offset="0%" stop-color="gray" stop-opacity=".25"/>
            <stop offset="54%" stop-color="gray" stop-opacity=".12"/>
            <stop offset="100%" stop-color="gray" stop-opacity=".1"/>
        </linearGradient>
    </defs>
    <g fill="none" fill-rule="evenodd">
        <path fill="#1E8CED" fill-rule="nonzero" d="M180.35 82.865c-7.408 11.236-6.02 26.543-2.766 38.613 1.089 4.04 2.343 8.307 1.412 12.83-1.138 5.53-5.29 9.872-9.49 12.359-7.658 4.522-16.403 4.397-22.771-.332-5.5-4.084-9.121-11.208-14.736-15.073-9.388-6.47-22.28-2.549-33.474 3.498-7.916 4.268-16.63 9.699-23.946 6.624-5.148-2.16-8.358-8.251-9.856-14.88-.723-3.2-1.16-6.697-2.818-9.135-.987-1.45-2.343-2.42-3.75-3.215-12.834-7.255-30.198-1.19-42.574-9.405C7.22 99.202 2.469 87.745.907 75.494c-1.562-12.25-.278-25.36 1.33-38.266 1.145-9.176 2.693-18.992 7.83-26.455C15.503 2.88 24.07-.65 31.517.1c7.446.75 13.912 5.173 19.485 10.579 6.966 6.756 13.248 15.386 22.262 17.565 6.14 1.485 12.846-.234 19.376-1.206 10.903-1.625 21.653-1.159 32.328-.548 10.219.584 20.5 1.31 30.022 4.681 6.738 2.388 11.91 7.358 18.198 10.59 4.098 2.107 8.723 2.375 12.542 5.184 4.704 3.46 8.775 9.848 6.891 17.923-1.796 7.682-8.34 12.036-12.27 17.998z" opacity=".1"/>
        <path stroke="#535461" stroke-width="2" d="M132.932 57.468s20.175-15.848 24.661-23.839c4.486-7.99 10.197-14.876 10.197-14.876"/>
        <path fill="#1E8CED" fill-rule="nonzero" d="M165.138 36.616l-8.728-1.844s2.06 8.629 8.728 1.844z"/>
        <path fill="#1E8CED" fill-rule="nonzero" d="M151.802 27.807l5.022 7.05s-9.818.665-5.022-7.05zM168.571 29.989l-7.976-1.311s5.01 7.144 7.976 1.31zM156.768 23.687l3.93 4.824s-6.956.618-3.93-4.824zM164.72 22.727s6.792.303 7.59.912c.8.608-1.012 4.176-3.595 3.593-2.583-.582-3.995-4.505-3.995-4.505zM162.005 17.036s2.775 4.74 2.671 5.642c-.104.903-4.229 1.916-5.062-1.498-.832-3.414 2.391-4.144 2.391-4.144z"/>
        <ellipse cx="168.833" cy="20.122" fill="#FFD037" fill-rule="nonzero" rx="1.782" ry="1.878" transform="rotate(-72.474 168.833 20.122)"/>
        <ellipse cx="165.876" cy="18.3" fill="#FFD037" fill-rule="nonzero" rx="1.782" ry="1.878" transform="rotate(-72.474 165.876 18.3)"/>
        <path fill="#1E8CED" fill-rule="nonzero" d="M70.004 119.594s3.238-9.03-17.288-19.916c0 0-20.842-5.699-18.71-25.268 0 0-24.026 16.502-7.769 37.523 16.258 21.02 30.29 16.432 30.29 16.432l13.477-8.771z"/>
        <path stroke="#535461" stroke-width="2" d="M63.746 123.672s-10.015-10.148-19.615-14.07a19.258 19.258 0 0 1-5.216-3.257c-6.12-5.244-8.789-13.156-7.21-20.787L34.01 74.41"/>
        <path fill="url(#a)" fill-rule="nonzero" d="M38.766 6.217h113.98v124.069H38.766z"/>
        <path fill="#F7F7FD" fill-rule="nonzero" d="M40.094 7.661h111.325v121.178H40.094z"/>
        <path fill="#E2E2EC" fill-rule="nonzero" d="M46.817 21.32H74.96v2.101H46.817zM46.817 26.457h48.066v2.101H46.817z"/>
        <path fill="#FFF" fill-rule="nonzero" d="M126.114 19.313h19.973V35.47h-19.973z"/>
        <path fill="#E2E2EC" fill-rule="nonzero" d="M145.982 19.406v15.97h-19.776v-15.97h19.776m.2-.187h-20.176v16.345h20.175V19.219z"/>
        <path fill="#FFF" fill-rule="nonzero" d="M105.942 19.313h19.973V35.47h-19.973z"/>
        <path fill="#E2E2EC" fill-rule="nonzero" d="M125.807 19.406v15.97H106.03v-15.97h19.776m.2-.187h-20.175v16.345h20.174V19.219z"/>
        <path fill="#FFF" fill-rule="nonzero" d="M126.114 35.657h19.973v16.157h-19.973z"/>
        <path fill="#E2E2EC" fill-rule="nonzero" d="M145.982 35.75v15.971h-19.776v-15.97h19.776m.2-.187h-20.176v16.344h20.175V35.564z"/>
        <path fill="#FFF" fill-rule="nonzero" d="M105.942 35.657h19.973v16.157h-19.973z"/>
        <path fill="#E2E2EC" fill-rule="nonzero" d="M125.807 35.75v15.971H106.03v-15.97h19.776m.2-.187h-20.175v16.344h20.174V35.564z"/>
        <path fill="#FFF" fill-rule="nonzero" d="M85.769 35.657h19.973v16.157H85.769z"/>
        <path fill="#E2E2EC" fill-rule="nonzero" d="M105.642 35.75v15.971H85.867v-15.97h19.775m.2-.187H85.667v16.344h20.175V35.564z"/>
        <path fill="#FFF" fill-rule="nonzero" d="M65.596 35.657h19.973v16.157H65.596z"/>
        <path fill="#E2E2EC" fill-rule="nonzero" d="M85.47 35.75v15.971H65.693v-15.97h19.775m.2-.187H65.494v16.344H85.67V35.564z"/>
        <path fill="#FFF" fill-rule="nonzero" d="M45.423 35.657h19.973v16.157H45.423z"/>
        <path fill="#E2E2EC" fill-rule="nonzero" d="M65.296 35.75v15.971H45.521v-15.97h19.775m.2-.187H45.321v16.344h20.175V35.564z"/>
        <path fill="#FFF" fill-rule="nonzero" d="M126.114 52h19.973v16.157h-19.973z"/>
        <path fill="#E2E2EC" fill-rule="nonzero" d="M145.982 52.096v15.97h-19.776v-15.97h19.776m.2-.188h-20.176v16.345h20.175V51.908z"/>
        <path fill="#FFF" fill-rule="nonzero" d="M105.942 52h19.973v16.157h-19.973z"/>
        <path fill="#E2E2EC" fill-rule="nonzero" d="M125.807 52.096v15.97H106.03v-15.97h19.776m.2-.188h-20.175v16.345h20.174V51.908z"/>
        <path fill="#FFF" fill-rule="nonzero" d="M85.769 52h19.973v16.157H85.769z"/>
        <path fill="#E2E2EC" fill-rule="nonzero" d="M105.642 52.096v15.97H85.867v-15.97h19.775m.2-.188H85.667v16.345h20.175V51.908z"/>
        <path fill="#FFF" fill-rule="nonzero" d="M65.596 52h19.973v16.157H65.596z"/>
        <path fill="#E2E2EC" fill-rule="nonzero" d="M85.47 52.096v15.97H65.693v-15.97h19.775m.2-.188H65.494v16.345H85.67V51.908z"/>
        <path fill="#FFF" fill-rule="nonzero" d="M45.423 52h19.973v16.157H45.423z"/>
        <path fill="#E2E2EC" fill-rule="nonzero" d="M65.296 52.096v15.97H45.521v-15.97h19.775m.2-.188H45.321v16.345h20.175V51.908z"/>
        <path fill="#FFF" fill-rule="nonzero" d="M126.114 68.345h19.973v16.157h-19.973z"/>
        <path fill="#E2E2EC" fill-rule="nonzero" d="M145.982 68.438v15.97h-19.776v-15.97h19.776m.2-.187h-20.176v16.345h20.175V68.25z"/>
        <path fill="#FFF" fill-rule="nonzero" d="M105.942 68.345h19.973v16.157h-19.973z"/>
        <path fill="#E2E2EC" fill-rule="nonzero" d="M125.807 68.438v15.97H106.03v-15.97h19.776m.2-.187h-20.175v16.345h20.174V68.25z"/>
        <path fill="#FFF" fill-rule="nonzero" d="M85.769 68.345h19.973v16.157H85.769z"/>
        <path fill="#E2E2EC" fill-rule="nonzero" d="M105.642 68.438v15.97H85.867v-15.97h19.775m.2-.187H85.667v16.345h20.175V68.25z"/>
        <path fill="#FFF" fill-rule="nonzero" d="M65.596 68.345h19.973v16.157H65.596z"/>
        <path fill="#E2E2EC" fill-rule="nonzero" d="M85.47 68.438v15.97H65.693v-15.97h19.775m.2-.187H65.494v16.345H85.67V68.25z"/>
        <path fill="#FFF" fill-rule="nonzero" d="M45.423 68.345h19.973v16.157H45.423z"/>
        <path fill="#E2E2EC" fill-rule="nonzero" d="M65.296 68.438v15.97H45.521v-15.97h19.775m.2-.187H45.321v16.345h20.175V68.25z"/>
        <path fill="#FFF" fill-rule="nonzero" d="M126.114 84.687h19.973v16.157h-19.973z"/>
        <path fill="#E2E2EC" fill-rule="nonzero" d="M145.982 84.783v15.968h-19.776V84.783h19.776m.2-.187h-20.176v16.342h20.175V84.596z"/>
        <path fill="#FFF" fill-rule="nonzero" d="M105.942 84.687h19.973v16.157h-19.973z"/>
        <path fill="#E2E2EC" fill-rule="nonzero" d="M125.807 84.783v15.968H106.03V84.783h19.776m.2-.187h-20.175v16.342h20.174V84.596z"/>
        <path fill="#FFF" fill-rule="nonzero" d="M85.769 84.687h19.973v16.157H85.769z"/>
        <path fill="#E2E2EC" fill-rule="nonzero" d="M105.642 84.783v15.968H85.867V84.783h19.775m.2-.187H85.667v16.342h20.175V84.596z"/>
        <path fill="#FFF" fill-rule="nonzero" d="M65.596 84.687h19.973v16.157H65.596z"/>
        <path fill="#E2E2EC" fill-rule="nonzero" d="M85.47 84.783v15.968H65.693V84.783h19.775m.2-.187H65.494v16.342H85.67V84.596z"/>
        <path fill="#FFF" fill-rule="nonzero" d="M45.423 84.687h19.973v16.157H45.423z"/>
        <path fill="#E2E2EC" fill-rule="nonzero" d="M65.296 84.783v15.968H45.521V84.783h19.775m.2-.187H45.321v16.342h20.175V84.596z"/>
        <path fill="#FFF" fill-rule="nonzero" d="M126.114 101.032h19.973v16.157h-19.973z"/>
        <path fill="#E2E2EC" fill-rule="nonzero" d="M145.982 101.125v15.97h-19.776v-15.97h19.776m.2-.187h-20.176v16.345h20.175v-16.345z"/>
        <path fill="#FFF" fill-rule="nonzero" d="M105.942 101.032h19.973v16.157h-19.973z"/>
        <path fill="#E2E2EC" fill-rule="nonzero" d="M125.807 101.125v15.97H106.03v-15.97h19.776m.2-.187h-20.175v16.345h20.174v-16.345z"/>
        <path fill="#FFF" fill-rule="nonzero" d="M85.769 101.032h19.973v16.157H85.769z"/>
        <path fill="#E2E2EC" fill-rule="nonzero" d="M105.642 101.125v15.97H85.867v-15.97h19.775m.2-.187H85.667v16.345h20.175v-16.345z"/>
        <path fill="#FFF" fill-rule="nonzero" d="M65.596 101.032h19.973v16.157H65.596z"/>
        <path fill="#E2E2EC" fill-rule="nonzero" d="M85.47 101.125v15.97H65.693v-15.97h19.775m.2-.187H65.494v16.345H85.67v-16.345z"/>
        <path fill="#FFF" fill-rule="nonzero" d="M45.423 101.032h19.973v16.157H45.423z"/>
        <path fill="#E2E2EC" fill-rule="nonzero" d="M65.296 101.125v15.97H45.521v-15.97h19.775m.2-.187H45.321v16.345h20.175v-16.345z"/>
        <path fill="#1E8CED" fill-rule="nonzero" d="M87.375 132.002c.571-.406 1.108-.886 1.274-1.47.177-.642-.215-1.302-.89-1.498-.818-.24-1.69.187-2.354.63-.663.445-1.42.937-2.287.845.897-.608 1.324-1.595 1.077-2.492a.952.952 0 0 0-.3-.506c-.453-.374-1.276-.211-1.82.08-1.727.937-2.209 2.725-2.219 4.342-.174-.583-.028-1.19-.032-1.789-.004-.6-.218-1.26-.877-1.582a3.321 3.321 0 0 0-1.338-.242c-.777-.022-1.642.038-2.171.472-.66.54-.488 1.446.086 2.04.573.593 1.446.966 2.247 1.376.611.313 1.23.678 1.598 1.172.048.066.088.136.12.21h4.868a14.281 14.281 0 0 0 3.018-1.588z"/>
        <ellipse cx="48.058" cy="38.114" fill="#FC6681" fill-rule="nonzero" rx="1.139" ry="1.067"/>
        <ellipse cx="50.902" cy="38.114" fill="#FFD037" fill-rule="nonzero" rx="1.139" ry="1.067"/>
        <ellipse cx="88.264" cy="53.938" fill="#1E8CED" fill-rule="nonzero" rx="1.139" ry="1.067"/>
        <ellipse cx="91.11" cy="53.938" fill="#1E8CED" fill-rule="nonzero" rx="1.139" ry="1.067"/>
        <ellipse cx="149.142" cy="84.519" fill="#1E8CED" fill-rule="nonzero" rx="1.139" ry="1.067"/>
        <ellipse cx="149.711" cy="83.275" fill="#1E8CED" fill-rule="nonzero" rx="1.139" ry="1.067"/>
        <ellipse cx="150.28" cy="82.208" fill="#1E8CED" fill-rule="nonzero" rx="1.139" ry="1.067"/>
        <ellipse cx="129.039" cy="38.114" fill="#1E8CED" fill-rule="nonzero" rx="1.139" ry="1.067"/>
        <ellipse cx="131.883" cy="38.114" fill="#1E8CED" fill-rule="nonzero" rx="1.139" ry="1.067"/>
        <ellipse cx="134.73" cy="38.114" fill="#1E8CED" fill-rule="nonzero" rx="1.139" ry="1.067"/>
        <ellipse cx="137.574" cy="38.114" fill="#1E8CED" fill-rule="nonzero" rx="1.139" ry="1.067"/>
        <ellipse cx="129.039" cy="71.184" fill="#1E8CED" fill-rule="nonzero" rx="1.139" ry="1.067"/>
        <ellipse cx="131.883" cy="71.184" fill="#1E8CED" fill-rule="nonzero" rx="1.139" ry="1.067"/>
        <ellipse cx="134.73" cy="71.184" fill="#1E8CED" fill-rule="nonzero" rx="1.139" ry="1.067"/>
        <ellipse cx="137.574" cy="71.184" fill="#1E8CED" fill-rule="nonzero" rx="1.139" ry="1.067"/>
        <ellipse cx="68.161" cy="53.938" fill="#FFD037" fill-rule="nonzero" rx="1.139" ry="1.067"/>
        <ellipse cx="48.058" cy="70.118" fill="#FC6681" fill-rule="nonzero" rx="1.139" ry="1.067"/>
        <path fill="url(#b)" fill-rule="nonzero" d="M148.159 87.197c1.248.69 3.196 1.14 5.663-.345l-.024 3.288c.176 2.248 3.15 10.47 3.15 10.47l2.097 6.76a49.84 49.84 0 0 1 2.305 14.707c0 1.65.164 3.35.67 4.629 1.116 2.83-.44 6.476-1.115 7.833a36.93 36.93 0 0 1-3.462.914 2.484 2.484 0 0 0-.31.088l-.013-.019s-3.148 1.17-4.547 1.01c-1.042-.12-1.696 1.1-.879 1.996-.77.187-1.562.32-2.095.259-1.398-.162-2.1 2.093.525 2.737 2.625.645 17.496 0 17.496 0 .86-.403 1.321-1.301 1.12-2.183 1.142-.041 1.855-.073 1.855-.073s2.624-1.124 0-4.19l-.14.1-.561-1.549v-2.092s3.323-14.98 2.275-16.752c-1.049-1.772-1.574-10.792-1.574-10.792l.355-9.826c.95-1.836 1.435-4.712 1.68-6.961.357-1.073.582-2.18.671-3.302a40.46 40.46 0 0 0 .098-1.657 10.483 10.483 0 0 0-.65-3.706c.998-1.348 2.622-3.432 3.962-4.665 2.1-1.932 1.574-4.189 1.574-4.189l-.875-5.477-2.1-9.343c.265-2.592-.313-4.084-.95-4.927a47.04 47.04 0 0 0 .4-2.515c.465-3.656.257-7.36-.614-10.951-.303-1.253-.717-2.538-1.654-3.487-1.06-1.075-2.782-1.73-3.178-3.139-.098-.35-.102-.723-.243-1.06-.384-.921-1.598-1.256-2.661-1.376-1.894-.215-4.632-.375-6.452.318-1.27.487-3.02 1.828-3.715 3.266-.4.661-.586 1.356-.416 2.01.067.24.169.472.302.687a5.836 5.836 0 0 0-.408 2.152c.013 2.582 1.71 4.895 4.279 5.83a5.908 5.908 0 0 1 .284 1.243c-.034.561-.072 1.14-.1 1.711-.02.079-.042.156-.064.232a46.23 46.23 0 0 0-4.395 2.102c1.051 1.449-.175 7.57-.175 7.57-2.625 1.45-5.25 5.156-2.45 9.021 2.801 3.865 1.225 8.053 1.225 8.053l-.437 6.297v.012l-.088 1.26h.034l-.034.478.076.013v.513c-1.229.423-3.025 1.277-4.095 2.856a10.238 10.238 0 0 1-1.832 2.106c-.33.269-.502.67-.46 1.078.041.408.29.772.67.977zm21.125-16.734a5.67 5.67 0 0 1 .622-3.169c.411.007.823.012 1.236.013.042.272.092.53.152.766.355 1.42-1.065 2.1-2.012 2.388l.002.002z"/>
        <path fill="#DB8B8B" fill-rule="nonzero" d="M169.63 132.895l.673 1.893-2.197 2.06-7.24 1.579-5.219-.474.338-1.736c.203-.76.843-1.351 1.658-1.53 2.145-.472 6.236-1.55 7.095-3.047l4.892 1.255z"/>
        <path fill="#000" fill-rule="nonzero" d="M169.63 132.895l.673 1.893-2.197 2.06-7.24 1.579-5.219-.474.338-1.736c.203-.76.843-1.351 1.658-1.53 2.145-.472 6.236-1.55 7.095-3.047l4.892 1.255z" opacity=".1"/>
        <path fill="#2E3037" fill-rule="nonzero" d="M157.34 137.472l1.01-1.262-1.01-1.463s-3.03 1.146-4.377.989c-1.347-.157-2.02 2.06.505 2.683 2.525.624 16.835 0 16.835 0s2.525-1.104 0-4.103l-2.197 1.58s-3.704 1.892-5.555 1.578l-5.212-.002z"/>
        <path fill="#DB8B8B" fill-rule="nonzero" d="M152.793 140.152l5.22.473 7.238-1.578 2.198-2.06-.178-.502-.252-.704-.251-.685-4.882-1.263c-.25.382-.592.703-1 .937-1.585 1.017-4.434 1.75-6.105 2.118a1.839 1.839 0 0 0-.2.058c-.72.226-1.266.781-1.45 1.472l-.338 1.734z"/>
        <path fill="#000" fill-rule="nonzero" d="M152.793 140.152l5.22.473 7.238-1.578 2.198-2.06-.178-.502-2.01 1.45s-3.703 1.893-5.555 1.578h-5.23l1.012-1.262-.907-1.31c-.72.226-1.266.78-1.45 1.471l-.338 1.74z" opacity=".1"/>
        <path fill="#2E3037" fill-rule="nonzero" d="M154.477 139.682l1.01-1.263-1.01-1.462s-3.03 1.146-4.377.989c-1.346-.158-2.02 2.06.506 2.683 2.525.624 16.835 0 16.835 0s2.525-1.105 0-4.103l-2.198 1.579s-3.703 1.893-5.555 1.579l-5.211-.002z"/>
        <path fill="#DB8B8B" fill-rule="nonzero" d="M158.686 48.14s8.082.789 6.903-2.367a5.345 5.345 0 0 1-.25-2.786 7.474 7.474 0 0 1 1.429-3.21l-7.577 1.105c.454.712.8 1.48 1.027 2.28.903 3.347-1.532 4.978-1.532 4.978z"/>
        <path fill="#474463" fill-rule="nonzero" d="M172.49 84.125s-.167 6.787-1.851 10.102l-.338 9.627s.505 8.839 1.516 10.575c1.011 1.736-2.197 16.414-2.197 16.414v2.526s-5.393 1.893-6.903-.317l1.516-18.782-.673-26.042 8.93-4.103z"/>
        <path fill="#000" fill-rule="nonzero" d="M172.49 84.125s-.167 6.787-1.851 10.102l-.338 9.627s.505 8.839 1.516 10.575c1.011 1.736-2.197 16.414-2.197 16.414v2.526s-5.393 1.893-6.903-.317l1.516-18.782-.673-26.042 8.93-4.103z" opacity=".1"/>
        <path fill="#FC6681" fill-rule="nonzero" d="M175.858 62.345l1.01 2.526.842 5.367c.23 1.517-.334 3.045-1.516 4.103-2.02 1.893-4.714 5.839-4.714 5.839l-3.196-8.989s3.196-.474 2.694-2.526c-.501-2.053-.34-5.854-.34-5.854l5.22-.466z"/>
        <path fill="#000" fill-rule="nonzero" d="M175.858 62.345l1.01 2.526.842 5.367c.23 1.517-.334 3.045-1.516 4.103-2.02 1.893-4.714 5.839-4.714 5.839l-3.196-8.989s3.196-.474 2.694-2.526c-.501-2.053-.34-5.854-.34-5.854l5.22-.466z" opacity=".05"/>
        <path fill="#000" fill-rule="nonzero" d="M160.895 134.772c2.16 3.183 5.521 1.38 6.116 1.02l-.243-.696-4.882-1.263a2.934 2.934 0 0 1-.991.939z" opacity=".1"/>
        <path fill="#474463" fill-rule="nonzero" d="M154.141 90.28c.168 2.21 3.03 10.26 3.03 10.26l2.02 6.623a49.65 49.65 0 0 1 2.22 14.408c0 1.616.157 3.283.644 4.536 1.347 3.472-1.346 8.208-1.346 8.208 2.357 3.945 6.392 1.262 6.392 1.262v-2.525s3.196-13.732 2.357-16.413c-.839-2.682-1.178-9.944-1.178-9.944V93.586c2.696-2.52 4.336-5.864 4.62-9.423.04-.517.072-1.06.094-1.624.136-3.558-2.461-7.736-3.476-9.223-.244-.36-.4-.561-.4-.561l-14.865 5.528-.034.013v1.732l-.078 10.253z"/>
        <path fill="#000" fill-rule="nonzero" d="M159.191 40.88c.454.712.8 1.48 1.027 2.281a6.996 6.996 0 0 0 5.121-.176 7.474 7.474 0 0 1 1.429-3.208l-7.577 1.103z" opacity=".1"/>
        <ellipse cx="162.559" cy="37.09" fill="#DB8B8B" fill-rule="nonzero" rx="6.566" ry="6.155"/>
        <path fill="#000" fill-rule="nonzero" d="M154.141 80.022l.072.014c7.06 1.361 15.922-5.538 15.922-5.538a7.978 7.978 0 0 1-.613-1.174c-.244-.36-.4-.562-.4-.562l-14.865 5.528-.038.553-.078 1.18z" opacity=".1"/>
        <path fill="#FC6681" fill-rule="nonzero" d="M155.993 47.981s9.428-5.367 12.458-3.157l4.21 5.056s2.694.789 2.196 5.84l2.012 9.15-6.06 1.422s-3.536 3.157-.674 7.734c0 0-8.923 6.944-15.994 5.525l.506-7.418s1.516-4.103-1.179-7.891c-2.694-3.789-.168-7.418 2.357-8.84 0-.001 1.177-6 .168-7.42z"/>
        <path fill="#DB8B8B" fill-rule="nonzero" d="M155.488 80.18s-3.536.63-5.22 3.157a9.979 9.979 0 0 1-1.762 2.06 1.213 1.213 0 0 0-.432 1.045c.039.393.273.745.632.951 1.336.75 3.516 1.216 6.268-.904 4.722-3.626.514-6.31.514-6.31z"/>
        <path fill="#000" fill-rule="nonzero" d="M160.707 50.981s3.368-.316 4.209 7.892c.84 8.208 2.197 10.1 2.197 10.1s.841 4.263-1.178 6.787c-2.02 2.525-5.893 7.892-5.893 7.892s-4.209 1.105-5.05-2.841l5.22-9.154s.84-3.157-1.179-5.367c-2.02-2.21-3.545-16.887 1.674-15.309z" opacity=".1"/>
        <path fill="#FC6681" fill-rule="nonzero" d="M160.364 50.507s3.367-.316 4.208 7.892c.841 8.208 2.198 10.101 2.198 10.101s.84 4.262-1.179 6.787c-2.02 2.524-5.893 7.89-5.893 7.89s-4.208 1.106-5.05-2.84l5.22-9.153s.841-3.158-1.178-5.368c-2.02-2.21-3.54-16.887 1.674-15.309z"/>
        <path fill="#000" fill-rule="nonzero" d="M157.591 56.425s-.336 4.888 1.175 7.577c1.51 2.689 1.516 6.155 0 8.052M156.75 50.429s1.346-1.262 5.22-1.422c3.873-.159 5.555-1.262 5.555-1.262" opacity=".1"/>
        <path fill="#000" fill-rule="nonzero" d="M166.114 29.137c1.023.118 2.198.447 2.561 1.348.136.331.14.697.234 1.04.381 1.378 2.037 2.02 3.058 3.074.9.937 1.298 2.19 1.598 3.416a30.137 30.137 0 0 1 .6 10.723c-.328 2.622-1 5.195-1.187 7.824-.188 2.629.156 5.395 1.688 7.605.659.95 1.53 1.784 1.997 2.83-.965.733-2.297.838-3.541.878a68.121 68.121 0 0 1-4.345 0c-.759-.025-1.552-.072-2.207-.431a3.287 3.287 0 0 1-1.159-1.167c-.829-1.31-1.036-2.902-.999-4.43.038-1.529.294-3.05.324-4.58.016-.833-.054-1.718-.565-2.4-.37-.492-.931-.824-1.41-1.223-1.798-1.498-2.421-3.899-2.481-6.155-.06-2.257.337-4.517.133-6.766-.08-.88-.431-1.938-1.354-2.109-.291-.054-.6 0-.879-.105-.74-.267-.669-1.247-.88-1.964-.238-.805-.971-1.427-1.177-2.247-.486-1.91 2.107-4.19 3.807-4.854 1.728-.678 4.363-.517 6.184-.307z" opacity=".1"/>
        <path fill="#472727" fill-rule="nonzero" d="M166.282 28.822c1.023.118 2.197.448 2.56 1.348.137.332.14.697.235 1.04.381 1.378 2.037 2.02 3.058 3.075.9.936 1.298 2.189 1.598 3.415a30.137 30.137 0 0 1 .6 10.723c-.329 2.622-1 5.195-1.187 7.824-.188 2.63.155 5.395 1.687 7.605.66.95 1.53 1.785 1.998 2.83-.965.734-2.297.839-3.542.878a68.121 68.121 0 0 1-4.344 0c-.76-.024-1.552-.071-2.207-.43a3.287 3.287 0 0 1-1.159-1.167c-.829-1.311-1.037-2.903-.999-4.431.038-1.528.294-3.049.324-4.579.016-.833-.054-1.719-.565-2.4-.37-.493-.931-.825-1.41-1.223-1.798-1.499-2.422-3.9-2.482-6.156-.06-2.256.338-4.517.134-6.766-.08-.88-.431-1.938-1.354-2.108-.292-.055-.6 0-.879-.105-.741-.268-.67-1.247-.88-1.965-.239-.805-.972-1.427-1.177-2.247-.486-1.91 2.107-4.189 3.807-4.854 1.728-.68 4.362-.519 6.184-.307z"/>
    </g>
</svg>
