<svg xmlns="http://www.w3.org/2000/svg" width="296" height="354" viewBox="0 0 296 354">
    <defs>
        <linearGradient id="a" x1="50%" x2="50%" y1="0%" y2="100%">
            <stop offset="0%" stop-color="#DFFCF5"/>
            <stop offset="100%" stop-color="#EDF5FD"/>
        </linearGradient>
    </defs>
    <g fill="none" fill-rule="evenodd">
        <g fill-rule="nonzero">
            <circle cx="67.5" cy="300.5" r="8.5" fill="#1E8CED" opacity=".4"/>
            <circle cx="52.5" cy="303.5" r="5.5" fill="#1E8CED" opacity=".4"/>
            <path fill="url(#a)" d="M24 189l255 9.344C256.738 244.842 208.925 277 153.525 277 94.485 277 44.063 240.479 24 189zM152 0a137.766 137.766 0 0 1 109.366 53.84L49.718 97.948l220.854-30.578A138.222 138.222 0 0 1 280.26 189L15.284 156.822A138.922 138.922 0 0 1 14 137.992C14 61.78 75.785 0 152 0z" opacity=".75"/>
            <circle cx="49.5" cy="60.5" r="6.5" fill="#3F3D56"/>
            <circle cx="284.5" cy="136.5" r="6.5" fill="#1E8CED"/>
            <path fill="#1E8CED" d="M49 184h11v11H49z"/>
            <path fill="#3F3D56" d="M138 104.358s18.706-7.842 27.492.442c8.786 8.284-23.524 5.557-27.492-.442z"/>
            <path fill="#2F2E41" d="M170.456 66.78c-6.15-10.263-18.317-10.741-18.317-10.741s-11.857-1.498-19.462 14.132c-7.09 14.568-16.873 28.634-1.576 32.044l2.764-8.493 1.711 9.126c2.178.154 4.363.191 6.545.11 16.383-.522 31.985.153 31.483-5.653-.668-7.718 2.77-20.651-3.148-30.526z"/>
            <ellipse cx="153" cy="215.5" fill="#3F3D56" rx="30" ry="6.5"/>
            <path fill="#2F2E41" d="M147.932 304.863l29.312-2.168.08 1.083-29.312 2.168zM128.17 299.91l.522-.952 10.856 5.973-.523.951zM149 295h10v1h-10zM124.174 354l-1.174-.074L131.826 227l1.174.074z"/>
            <path fill="#2F2E41" d="M164.834 353L159 228.054l1.166-.054L166 352.946zM174.028 228.353l1.083-.09 10.313 124.878-1.082.09z"/>
            <path fill="#FCD0D0" d="M177.706 252s-7.755 14.135-12.74 14.135-4.43 9.243-3.323 11.418c1.108 2.174 3.877 7.067-.554 14.135-1.548 2.469-1.271 5.27-.255 7.868 2.846 7.283 13.916 5.077 13.563-2.716a14.218 14.218 0 0 0-.014-.259c-.554-8.699 3.877-22.29 8.308-25.553 4.432-3.262 8.309-11.96 8.309-11.96L177.706 252zM125.294 250s7.755 14.135 12.74 14.135 4.43 9.243 3.323 11.418c-1.108 2.174-3.877 7.067.554 14.135 1.548 2.469 1.271 5.27.255 7.868-2.846 7.283-13.916 5.077-13.563-2.716l.014-.259c.554-8.699-3.877-22.29-8.308-25.553-4.432-3.262-8.309-11.96-8.309-11.96L125.294 250z"/>
            <path fill="#2F2E41" d="M131.692 179.014l-3.238 7.107s-47.494 15.854-43.176 34.442c4.317 18.588 25.366 47.564 28.604 46.47 3.238-1.093 20.509-4.373 21.049-13.667.54-9.294-12.414-25.695-12.414-25.695l17.81-16.402 25.918-.546 22.117 16.948s-23.208 20.774-12.953 28.975c10.254 8.2 25.366 13.668 27.525 10.387 2.159-3.28 26.446-51.937 22.668-56.31-3.778-4.374-42.098-20.775-42.098-20.775l-10.254-14.761L133.312 173l-1.62 6.014z"/>
            <path fill="#FFB8B8" d="M141.94 90.15s2.797 18.121-2.798 20.318c-5.596 2.196 11.19 11.532 11.19 11.532h9.513L166 109.37s-5.595-9.885-2.238-19.22c3.357-9.336-21.822 0-21.822 0z"/>
            <path fill="#E6B5B5" d="M141.94 90.15s2.797 18.121-2.798 20.318c-5.596 2.196 11.19 11.532 11.19 11.532h9.513L166 109.37s-5.595-9.885-2.238-19.22c3.357-9.336-21.822 0-21.822 0z"/>
            <path fill="#D0CDE1" d="M136.54 106s6.095 6.498 7.203 7.58c1.108 1.083 6.095 7.04 16.622-1.624 10.527-8.663 11.635 1.625 11.635 1.625v64.976s-8.865-3.79-16.068 0c-7.202 3.79-22.162-1.083-22.162-1.083L131 110.332l5.54-4.332z"/>
            <path fill="#3F3D56" d="M142.997 104.966s-5.096-2.174-9.458 0c-4.363 2.174-19.631 13.045-18.54 17.937 1.09 4.892 15.268 39.136 5.452 55.442C110.636 194.652 109 199 109 199l23.993-12.502s18.54-11.414 16.905-18.48c-1.636-7.066-6.9-63.052-6.9-63.052zM162.17 105s11.748 1.081 12.308 2.162c.56 1.081 17.632 5.676 16.513 10.542-1.12 4.865-16.513 48.382-9.796 56.49 6.717 8.11 17.912 19.461 13.994 20.543-3.918 1.08-10.636-1.622-17.353 0-6.717 1.621-22.39-11.893-20.711-26.489 1.68-14.596.013-59.464 5.045-63.248z"/>
            <path fill="#FCD0D0" d="M135.39 208.7v5.401s-2.64 12.422 5.81 11.882c8.452-.54 3.17-15.122 3.17-15.122l-.528-4.861-8.451 2.7zM160.66 209s-5.986 11.873 0 12.906c5.987 1.032 10.34-6.711 10.34-8.776 0-2.065-10.34-4.13-10.34-4.13z"/>
            <path fill="#2F2E41" d="M141 354l-1-.026L143 228l1 .026z"/>
            <ellipse cx="169" cy="82" fill="#FFB8B8" rx="1" ry="3"/>
            <ellipse cx="138" cy="82" fill="#FFB8B8" rx="1" ry="3"/>
            <path fill="#3F3D56" d="M177.79 111s13.744 0 13.194 5.469c-.55 5.469-18.691 99.531-18.691 99.531s-7.696-7.11-14.293-5.469L177.79 111zM124.846 115S111 117.71 111 125.838 130.938 212 133.708 212c2.769 0 13.292-1.626 13.292-4.335 0-2.71-22.154-92.665-22.154-92.665z"/>
            <path fill="#000" d="M129 130l12 48s-5.6-42-12-48zM175 123l-12 62s3.835-58.424 12-62z" opacity=".2"/>
            <circle cx="153" cy="82" r="16" fill="#FCD0D0"/>
            <path fill="#2F2E41" d="M167.438 65.387L155.648 59l-16.28 2.613L136 77l8.385-.334 2.342-5.652v5.56l3.87-.155 2.245-9L154.245 77 168 76.71zM0 353h296v1H0zM244.137 353l-1.137-.021a242.519 242.519 0 0 1 4.038-36.118c4.918-25.543 13.097-42.32 24.309-49.861l.653.892c-26.19 17.617-27.85 84.435-27.863 85.108z"/>
            <path fill="#2F2E41" d="M258.044 353l-1.044-.021c.022-1.19.675-29.229 11.4-36.979l.6.88c-10.293 7.437-10.951 35.834-10.956 36.12z"/>
            <circle cx="276.5" cy="262.5" r="5.5" fill="#1E8CED"/>
            <circle cx="274.5" cy="308.5" r="5.5" fill="#1E8CED"/>
            <path fill="#2F2E41" d="M256.75 271.968c1.097 6.351-1.763 12.032-1.763 12.032s-4.64-4.617-5.736-10.968c-1.098-6.351 1.762-12.032 1.762-12.032s4.639 4.617 5.736 10.968zM273.115 287.874c-6.075 2.164-12.115.543-12.115.543s3.81-5.128 9.885-7.291c6.075-2.164 12.115-.543 12.115-.543s-3.81 5.128-9.885 7.291zM274.361 329.136a17.526 17.526 0 0 1-9.361.419c4.023-5.311 10.68-7.678 17-6.046a18.17 18.17 0 0 1-7.639 5.627z"/>
            <path fill="#3F3D56" d="M13 66h76v1H13zM34 56h1v10h-1zM67 56h1v10h-1zM218 144h76v1h-76zM239 134h1v10h-1zM271 134h1v10h-1zM17 194h76v1H17zM39 184h1v10h-1zM72 184h1v10h-1z"/>
        </g>
        <g transform="translate(30 165)">
            <path fill="#57B894" fill-rule="nonzero" d="M207.24 20.994c2.333.1 4.481-1.15 5.358-3.117.876-1.969.29-4.226-1.463-5.63-1.752-1.403-4.288-1.646-6.325-.607l.972 2.42-1.999-1.745c-1.072.891-1.71 2.132-1.776 3.451-.026.463.021.927.14 1.377.56 2.175 2.64 3.747 5.094 3.851z"/>
            <path stroke="#3F3D56" d="M223.77 46c-1.216-1.862.164-4.144 1.75-5.805 1.587-1.66 3.52-3.389 3.48-5.505-.06-3.041-3.964-4.837-7.083-6.449a34.226 34.226 0 0 1-6.36-4.228c-.766-.646-1.506-1.337-1.954-2.163-.645-1.189-.627-2.541-.586-3.844.135-4.34.395-8.675.778-13.006"/>
            <path stroke="#3F3D56" d="M207.24 19.994c2.333.1 4.481-1.15 5.358-3.117.876-1.969.29-4.226-1.463-5.63-1.752-1.403-4.288-1.646-6.325-.607l.972 2.42-1.999-1.745c-1.072.891-1.71 2.132-1.776 3.451-.026.463.021.927.14 1.377.56 2.175 2.64 3.747 5.094 3.851z"/>
            <path fill="#57B894" fill-rule="nonzero" d="M209.006 5.766c.087-1.701 1.122-3.245 2.746-4.096l1.23 2.215-.036-2.68c2.295-.615 4.763.19 6.106 1.989 1.343 1.8 1.251 4.183-.226 5.893-1.477 1.71-4.001 2.357-6.244 1.599-2.242-.758-3.688-2.747-3.576-4.92z"/>
            <path stroke="#3F3D56" d="M209.006 4.766c.087-1.701 1.122-3.245 2.746-4.096l1.23 2.215-.036-2.68c2.295-.615 4.763.19 6.106 1.989 1.343 1.8 1.251 4.183-.226 5.893-1.477 1.71-4.001 2.357-6.244 1.599-2.242-.758-3.688-2.747-3.576-4.92z"/>
            <path fill="#57B894" fill-rule="nonzero" d="M221.243 28.994c2.793.119 5.24-1.686 5.686-4.196.446-2.509-1.25-4.923-3.941-5.61l.029 2.059-1.245-2.24c-.005-.001-.01-.002-.015-.001-3.035-.13-5.61 2.002-5.75 4.76-.143 2.76 2.202 5.1 5.236 5.228z"/>
            <path stroke="#3F3D56" d="M220.243 28.994c2.793.119 5.24-1.686 5.686-4.196.446-2.509-1.25-4.923-3.941-5.61l.029 2.059-1.246-2.24-.014-.002c-1.963-.083-3.826.792-4.887 2.296-1.06 1.503-1.158 3.407-.256 4.994.902 1.587 2.667 2.616 4.63 2.7z"/>
            <path fill="#57B894" fill-rule="nonzero" d="M218.61 38.288c1.19 2.102 3.837 3.159 6.345 2.533 2.508-.625 4.191-2.761 4.035-5.121-.156-2.36-2.109-4.298-4.681-4.645-2.572-.348-5.06.99-5.965 3.206l3.436 2.542-3.78-.797c0 .794.209 1.577.61 2.282z"/>
            <path stroke="#3F3D56" d="M218.61 37.288c1.19 2.102 3.837 3.159 6.345 2.533 2.508-.625 4.191-2.761 4.035-5.121-.156-2.36-2.109-4.298-4.681-4.645-2.572-.348-5.06.99-5.965 3.206l3.436 2.542-3.78-.797c0 .794.209 1.577.61 2.282z"/>
            <path fill="#EAEAEA" fill-rule="nonzero" d="M245.207 48.908l-.168 7.589c-.061 3.034-3.375 5.453-7.435 5.426l-233.278-.82c-1.139-.007-2.229-.355-3.027-.966-.798-.61-1.235-1.434-1.22-2.285l.182-9.855c.034-1.705 1.874-3.073 4.154-3.09l234.109-1.716c1.78-.013 3.494.513 4.753 1.46 1.26.945 1.955 2.23 1.928 3.56l.002.697z"/>
            <path fill="#000" fill-rule="nonzero" d="M245.039 56.497c-.061 3.034-3.375 5.453-7.435 5.426l-233.278-.82c-1.139-.007-2.229-.355-3.027-.966-.798-.61-1.235-1.434-1.22-2.285l244.96-1.355z" opacity=".056"/>
            <path fill="#FFF" fill-rule="nonzero" d="M198 47.41L168.484 44 116 45.705 135.008 51z"/>
            <path fill="#1E8CED" fill-rule="nonzero" d="M204 43.579L228 52l15-2.368-1.308-9.419-.192-1.37L216.3 32l-1.8 1.579z"/>
            <path fill="#000" fill-rule="nonzero" d="M218 33v9.139L244 49l-1.35-9.445z" opacity=".1"/>
            <path fill="#7A799C" fill-rule="nonzero" d="M195.217 46.286l1.692.556 20.183 6.625 1.568.514c.1.034.212.022.301-.031l1.848-1.098 19.227-11.433 1.816-1.08a.283.283 0 0 0 .144-.289.31.31 0 0 0-.232-.24l-2.897-.786-20.36-5.528-1.777-.483a.369.369 0 0 0-.285.038l-1.4.836-18.14 10.827-1.757 1.05a.284.284 0 0 0-.146.28c.015.11.098.204.215.242z"/>
            <path fill="#F2F2F2" fill-rule="nonzero" d="M237.704 40.698L219.44 51.895a.735.735 0 0 1-.609.068l-19.388-6.38a.627.627 0 0 1-.44-.505.592.592 0 0 1 .303-.58l17.677-10.4a.736.736 0 0 1 .566-.07l19.975 5.582c.248.07.43.262.468.493a.588.588 0 0 1-.29.595z"/>
            <path fill="#1E8CED" fill-rule="nonzero" d="M240 38v2h.746l1.16-.902a.265.265 0 0 0 .092-.241.24.24 0 0 0-.149-.2L240 38zM218 52v1.169l1.266.802c.08.052.171.034.243-.05l1.491-1.71V52h-3zM194.227 45.478L196 46v-2h-.004l-1.841.987c-.109.058-.168.16-.153.263.016.103.102.191.225.228zM215 33h3v-.44l-1.54-.545a.256.256 0 0 0-.247.042L215 33z"/>
            <circle cx="207.5" cy="38.5" r="1" fill="#F2F2F2" fill-rule="nonzero"/>
            <rect width="78" height="43" x="82" y="12" fill="#7A799C" rx="3"/>
        </g>
    </g>
</svg>
